<svg xmlns="http://www.w3.org/2000/svg" width="240" height="322"><linearGradient id="a" x1="47.691%" x2="54.955%" y1="54.014%" y2="82.588%"><stop offset="0" stop-color="#592300"/><stop offset=".05" stop-color="#5e2301"/><stop offset="1" stop-color="#b0250c"/></linearGradient><g fill="none" fill-rule="evenodd"><path fill="url(#a)" d="M9.602 36.602L2.925 169.299 1.07 178.22c-.37 2.974.742 6.319 2.968 8.55l89.769 79.172s3.71 3.345 4.08-1.859L99 217.62c0-3.345-.742-6.69-2.226-9.664L12.2 35.86S11.086 34 10.344 34s-.742.743-.742 2.602"/><path fill="#da2115" d="M98 265.85c0 2.98-1.855 5.96-4.452 7.822L8.226 321.721S6 322.838 6 320.603v-10.056c0-3.353 1.484-6.332 3.71-8.94l84.58-88.647c1.484-1.49 1.855-4.098.742-5.96 1.484 2.235 2.597 4.842 2.968 7.45zM0 178.095c0 3.34 1.484 6.679 4.08 8.905-4.08-4.081-.742-4.081.742-4.081l226.646-13.357c2.968 0 5.194-2.598 5.194-5.566L240 4.823c0-1.484-.37-2.597-1.484-3.71C237.403.371 236.291 0 234.806 0L12.242 28.57c-2.967.742-5.193 3.339-5.193 6.307z"/><path d="M49.658 120.251c.738 5.22 2.582 6.711 9.59 5.965l23.61-1.491c5.902-.373 7.378-1.864 7.746-7.457v-2.982c0-5.593-1.475-7.084-7.377-6.711l-29.511 1.864c-9.223.746-14.756-1.118-18.814-5.592-3.689-4.101-5.533-10.812-5.164-18.642v-5.592c0-6.338 2.213-12.676 6.27-17.523 4.059-5.22 9.96-7.456 19.183-8.202l32.831-3.728c9.222-.746 14.756 1.118 18.814 5.592 3.688 3.728 4.795 8.575 5.164 17.896l-20.658 4.1c-.738-5.219-2.582-6.71-9.59-5.964l-23.61 1.491c-5.902.373-7.378 1.864-7.746 7.457v2.982c0 5.593 1.475 7.084 7.377 6.711l29.511-1.864c9.223-.746 14.756 1.118 18.814 5.592 3.689 4.101 5.533 10.812 5.164 18.642v5.592c0 7.084-2.213 13.795-6.27 19.387-4.059 5.22-9.96 7.456-19.183 8.202l-32.831 1.864c-9.222.746-14.756-1.118-18.814-5.592-3.688-3.728-4.795-8.575-5.164-17.896zm97.232-6.634c0 5.57 1.488 7.056 7.441 6.684l26.416-1.485c5.953-.372 7.441-1.857 7.813-7.428l2.605-72.788L212 36l-2.976 73.532c-.373 10.77-2.233 17.083-6.325 22.282-4.465 5.199-10.046 7.427-19.347 8.17l-33.113 1.857c-9.302.743-14.883-1.114-18.975-5.57-4.093-4.457-5.581-10.77-5.209-21.54l2.604-67.961 20.836-2.6z" fill="#fff"/></g></svg>